<svg xmlns="http://www.w3.org/2000/svg" width="16" height="16" viewBox="0 0 16 16" fill="none">
  <path d="M0.5 8C0.5 3.87614 3.87614 0.5 8 0.5C12.1239 0.5 15.5 3.87614 15.5 8C15.5 12.1239 12.1239 15.5 8 15.5C3.87614 15.5 0.5 12.1239 0.5 8Z" fill="#8A5303" stroke="#FBD59F"/>
  <path d="M6.85742 6.98438H7.75977C8.18945 6.98438 8.50781 6.87695 8.71484 6.66211C8.92188 6.44727 9.02539 6.16211 9.02539 5.80664C9.02539 5.46289 8.92188 5.19531 8.71484 5.00391C8.51172 4.8125 8.23047 4.7168 7.87109 4.7168C7.54688 4.7168 7.27539 4.80664 7.05664 4.98633C6.83789 5.16211 6.72852 5.39258 6.72852 5.67773H5.03516C5.03516 5.23242 5.1543 4.83398 5.39258 4.48242C5.63477 4.12695 5.9707 3.84961 6.40039 3.65039C6.83398 3.45117 7.31055 3.35156 7.83008 3.35156C8.73242 3.35156 9.43945 3.56836 9.95117 4.00195C10.4629 4.43164 10.7188 5.02539 10.7188 5.7832C10.7188 6.17383 10.5996 6.5332 10.3613 6.86133C10.123 7.18945 9.81055 7.44141 9.42383 7.61719C9.9043 7.78906 10.2617 8.04688 10.4961 8.39062C10.7344 8.73438 10.8535 9.14062 10.8535 9.60938C10.8535 10.3672 10.5762 10.9746 10.0215 11.4316C9.4707 11.8887 8.74023 12.1172 7.83008 12.1172C6.97852 12.1172 6.28125 11.8926 5.73828 11.4434C5.19922 10.9941 4.92969 10.4004 4.92969 9.66211H6.62305C6.62305 9.98242 6.74219 10.2441 6.98047 10.4473C7.22266 10.6504 7.51953 10.752 7.87109 10.752C8.27344 10.752 8.58789 10.6465 8.81445 10.4355C9.04492 10.2207 9.16016 9.9375 9.16016 9.58594C9.16016 8.73438 8.69141 8.30859 7.75391 8.30859H6.85742V6.98438Z" fill="#FBD59F"/>
</svg>