<svg xmlns="http://www.w3.org/2000/svg" width="16" height="16" viewBox="0 0 16 16" fill="none">
  <path d="M0.5 8C0.5 3.87614 3.87614 0.5 8 0.5C12.1239 0.5 15.5 3.87614 15.5 8C15.5 12.1239 12.1239 15.5 8 15.5C3.87614 15.5 0.5 12.1239 0.5 8Z" fill="#595959" stroke="#D8D8D8"/>
  <path d="M10.9824 12H5.13477V10.8398L7.89453 7.89844C8.27344 7.48438 8.55273 7.12305 8.73242 6.81445C8.91602 6.50586 9.00781 6.21289 9.00781 5.93555C9.00781 5.55664 8.91211 5.25977 8.7207 5.04492C8.5293 4.82617 8.25586 4.7168 7.90039 4.7168C7.51758 4.7168 7.21484 4.84961 6.99219 5.11523C6.77344 5.37695 6.66406 5.72266 6.66406 6.15234H4.96484C4.96484 5.63281 5.08789 5.1582 5.33398 4.72852C5.58398 4.29883 5.93555 3.96289 6.38867 3.7207C6.8418 3.47461 7.35547 3.35156 7.92969 3.35156C8.80859 3.35156 9.49023 3.5625 9.97461 3.98438C10.4629 4.40625 10.707 5.00195 10.707 5.77148C10.707 6.19336 10.5977 6.62305 10.3789 7.06055C10.1602 7.49805 9.78516 8.00781 9.25391 8.58984L7.31445 10.6348H10.9824V12Z" fill="#D8D8D8"/>
</svg>