<svg xmlns="http://www.w3.org/2000/svg" width="16" height="16" viewBox="0 0 16 16" fill="none">
  <mask id="path-1-inside-1_2306_656" fill="white">
    <path d="M8.00001 0C6.04446 0 4.44446 1.6 4.44446 3.55556C4.44446 5.51111 6.04446 7.11111 8.00001 7.11111C9.95557 7.11111 11.5556 5.51111 11.5556 3.55556C11.5556 1.6 9.95557 0 8.00001 0Z"/>
  </mask>
  <path d="M8.00001 0C6.04446 0 4.44446 1.6 4.44446 3.55556C4.44446 5.51111 6.04446 7.11111 8.00001 7.11111C9.95557 7.11111 11.5556 5.51111 11.5556 3.55556C11.5556 1.6 9.95557 0 8.00001 0Z" fill="#806401"/>
  <path d="M8.00001 -1C5.49217 -1 3.44446 1.04772 3.44446 3.55556H5.44446C5.44446 2.15228 6.59674 1 8.00001 1V-1ZM3.44446 3.55556C3.44446 6.0634 5.49217 8.11111 8.00001 8.11111V6.11111C6.59674 6.11111 5.44446 4.95883 5.44446 3.55556H3.44446ZM8.00001 8.11111C10.5079 8.11111 12.5556 6.0634 12.5556 3.55556H10.5556C10.5556 4.95883 9.40328 6.11111 8.00001 6.11111V8.11111ZM12.5556 3.55556C12.5556 1.04772 10.5079 -1 8.00001 -1V1C9.40328 1 10.5556 2.15228 10.5556 3.55556H12.5556Z" fill="#FDE48E" mask="url(#path-1-inside-1_2306_656)"/>
  <mask id="path-3-inside-2_2306_656" fill="white">
    <path d="M3.55556 8.88889C1.6 8.88889 0 10.4889 0 12.4444C0 14.4 1.6 16 3.55556 16C5.51111 16 7.11111 14.4 7.11111 12.4444C7.11111 10.4889 5.51111 8.88889 3.55556 8.88889Z"/>
  </mask>
  <path d="M3.55556 8.88889C1.6 8.88889 0 10.4889 0 12.4444C0 14.4 1.6 16 3.55556 16C5.51111 16 7.11111 14.4 7.11111 12.4444C7.11111 10.4889 5.51111 8.88889 3.55556 8.88889Z" fill="#595959"/>
  <path d="M3.55556 7.88889C1.04772 7.88889 -1 9.9366 -1 12.4444H1C1 11.0412 2.15228 9.88889 3.55556 9.88889V7.88889ZM-1 12.4444C-1 14.9523 1.04772 17 3.55556 17V15C2.15228 15 1 13.8477 1 12.4444H-1ZM3.55556 17C6.0634 17 8.11111 14.9523 8.11111 12.4444H6.11111C6.11111 13.8477 4.95883 15 3.55556 15V17ZM8.11111 12.4444C8.11111 9.9366 6.0634 7.88889 3.55556 7.88889V9.88889C4.95883 9.88889 6.11111 11.0412 6.11111 12.4444H8.11111Z" fill="#D8D8D8" mask="url(#path-3-inside-2_2306_656)"/>
  <mask id="path-5-inside-3_2306_656" fill="white">
    <path d="M12.4444 8.88889C10.4889 8.88889 8.88889 10.4889 8.88889 12.4444C8.88889 14.4 10.4889 16 12.4444 16C14.4 16 16 14.4 16 12.4444C16 10.4889 14.4 8.88889 12.4444 8.88889Z"/>
  </mask>
  <path d="M12.4444 8.88889C10.4889 8.88889 8.88889 10.4889 8.88889 12.4444C8.88889 14.4 10.4889 16 12.4444 16C14.4 16 16 14.4 16 12.4444C16 10.4889 14.4 8.88889 12.4444 8.88889Z" fill="#8A5303"/>
  <path d="M12.4444 7.88889C9.9366 7.88889 7.88889 9.9366 7.88889 12.4444H9.88889C9.88889 11.0412 11.0412 9.88889 12.4444 9.88889V7.88889ZM7.88889 12.4444C7.88889 14.9523 9.9366 17 12.4444 17V15C11.0412 15 9.88889 13.8477 9.88889 12.4444H7.88889ZM12.4444 17C14.9523 17 17 14.9523 17 12.4444H15C15 13.8477 13.8477 15 12.4444 15V17ZM17 12.4444C17 9.9366 14.9523 7.88889 12.4444 7.88889V9.88889C13.8477 9.88889 15 11.0412 15 12.4444H17Z" fill="#FBD59F" mask="url(#path-5-inside-3_2306_656)"/>
</svg>